<svg width="144" height="26" viewBox="0 0 144 26" fill="none" xmlns="http://www.w3.org/2000/svg">
<path d="M29.103 7.484V12.062C29.103 12.16 29.166 12.223 29.292 12.251C29.768 12.307 30.146 12.335 30.426 12.335C31.434 12.335 32.211 12.104 32.757 11.642C33.317 11.166 33.597 10.508 33.597 9.668C33.597 8.002 32.54 7.169 30.426 7.169C30.076 7.169 29.691 7.204 29.271 7.274C29.159 7.302 29.103 7.372 29.103 7.484ZM26.793 20C26.471 20 26.191 19.881 25.953 19.643C25.715 19.405 25.596 19.125 25.596 18.803V5.972C25.596 5.636 25.708 5.335 25.932 5.069C26.156 4.803 26.436 4.656 26.772 4.628C27.962 4.516 29.11 4.46 30.216 4.46C34.696 4.46 36.936 6.126 36.936 9.458C36.936 11.264 36.411 12.636 35.361 13.574C34.325 14.498 32.799 14.96 30.783 14.96C30.251 14.96 29.754 14.939 29.292 14.897C29.166 14.897 29.103 14.953 29.103 15.065V18.803C29.103 19.125 28.984 19.405 28.746 19.643C28.508 19.881 28.228 20 27.906 20H26.793ZM40.5816 20C40.2596 20 39.9796 19.881 39.7416 19.643C39.5036 19.405 39.3846 19.125 39.3846 18.803V5.447C39.3846 5.125 39.5036 4.845 39.7416 4.607C39.9796 4.369 40.2596 4.25 40.5816 4.25H41.7576C42.0796 4.25 42.3596 4.369 42.5976 4.607C42.8356 4.845 42.9546 5.125 42.9546 5.447V18.803C42.9546 19.125 42.8356 19.405 42.5976 19.643C42.3596 19.881 42.0796 20 41.7576 20H40.5816ZM51.3874 15.002C49.6794 15.002 48.8254 15.527 48.8254 16.577C48.8254 16.955 48.9374 17.256 49.1614 17.48C49.3854 17.69 49.6864 17.795 50.0644 17.795C50.7364 17.795 51.2824 17.585 51.7024 17.165C52.1224 16.731 52.3324 16.157 52.3324 15.443V15.191C52.3324 15.065 52.2694 15.002 52.1434 15.002H51.3874ZM49.0354 20.21C48.0694 20.21 47.2714 19.902 46.6414 19.286C46.0254 18.656 45.7174 17.844 45.7174 16.85C45.7174 14.302 47.6074 13.028 51.3874 13.028H52.1434C52.2694 13.028 52.3324 12.972 52.3324 12.86V12.755C52.3324 12.223 52.1924 11.838 51.9124 11.6C51.6464 11.362 51.1914 11.243 50.5474 11.243C49.6934 11.243 48.6714 11.376 47.4814 11.642C47.1874 11.698 46.9214 11.635 46.6834 11.453C46.4594 11.271 46.3474 11.033 46.3474 10.739V10.697C46.3474 10.347 46.4524 10.032 46.6624 9.752C46.8864 9.458 47.1664 9.283 47.5024 9.227C48.7344 8.989 49.7984 8.87 50.6944 8.87C52.5284 8.87 53.8234 9.199 54.5794 9.857C55.3494 10.515 55.7344 11.607 55.7344 13.133V18.803C55.7344 19.125 55.6154 19.405 55.3774 19.643C55.1394 19.881 54.8594 20 54.5374 20H53.7604C53.4244 20 53.1374 19.888 52.8994 19.664C52.6614 19.426 52.5354 19.139 52.5214 18.803V18.572C52.5214 18.558 52.5144 18.551 52.5004 18.551C52.4724 18.551 52.4584 18.558 52.4584 18.572C51.5764 19.664 50.4354 20.21 49.0354 20.21ZM59.5796 20C59.2576 20 58.9776 19.881 58.7396 19.643C58.5156 19.405 58.4036 19.125 58.4036 18.803V10.277C58.4036 9.955 58.5156 9.675 58.7396 9.437C58.9776 9.199 59.2576 9.08 59.5796 9.08H60.4406C60.7766 9.08 61.0566 9.199 61.2806 9.437C61.5186 9.661 61.6446 9.941 61.6586 10.277L61.6796 10.445C61.6796 10.459 61.6866 10.466 61.7006 10.466L61.7426 10.424C62.6526 9.388 63.7446 8.87 65.0186 8.87C66.2926 8.87 67.2096 9.234 67.7696 9.962C68.3296 10.676 68.6096 11.901 68.6096 13.637V18.803C68.6096 19.125 68.4906 19.405 68.2526 19.643C68.0286 19.881 67.7556 20 67.4336 20H66.5096C66.1876 20 65.9076 19.881 65.6696 19.643C65.4316 19.405 65.3126 19.125 65.3126 18.803V13.742C65.3126 12.902 65.2006 12.328 64.9766 12.02C64.7526 11.698 64.3466 11.537 63.7586 11.537C63.2686 11.537 62.8136 11.74 62.3936 12.146C61.9876 12.538 61.7846 12.965 61.7846 13.427V18.803C61.7846 19.125 61.6656 19.405 61.4276 19.643C61.2036 19.881 60.9306 20 60.6086 20H59.5796ZM72.4585 20C72.1365 20 71.8565 19.881 71.6185 19.643C71.3945 19.405 71.2825 19.125 71.2825 18.803V10.277C71.2825 9.955 71.3945 9.675 71.6185 9.437C71.8565 9.199 72.1365 9.08 72.4585 9.08H73.3195C73.6555 9.08 73.9355 9.199 74.1595 9.437C74.3975 9.661 74.5235 9.941 74.5375 10.277L74.5585 10.445C74.5585 10.459 74.5655 10.466 74.5795 10.466L74.6215 10.424C75.5315 9.388 76.6235 8.87 77.8975 8.87C79.1715 8.87 80.0885 9.234 80.6485 9.962C81.2085 10.676 81.4885 11.901 81.4885 13.637V18.803C81.4885 19.125 81.3695 19.405 81.1315 19.643C80.9075 19.881 80.6345 20 80.3125 20H79.3885C79.0665 20 78.7865 19.881 78.5485 19.643C78.3105 19.405 78.1915 19.125 78.1915 18.803V13.742C78.1915 12.902 78.0795 12.328 77.8555 12.02C77.6315 11.698 77.2255 11.537 76.6375 11.537C76.1475 11.537 75.6925 11.74 75.2725 12.146C74.8665 12.538 74.6635 12.965 74.6635 13.427V18.803C74.6635 19.125 74.5445 19.405 74.3065 19.643C74.0825 19.881 73.8095 20 73.4875 20H72.4585ZM88.8444 11.159C88.2144 11.159 87.7384 11.327 87.4164 11.663C87.0944 11.985 86.8914 12.545 86.8074 13.343C86.8074 13.455 86.8564 13.511 86.9544 13.511H90.5034C90.6294 13.511 90.6924 13.448 90.6924 13.322C90.6364 11.88 90.0204 11.159 88.8444 11.159ZM89.3694 20.21C87.4654 20.21 85.9954 19.727 84.9594 18.761C83.9374 17.795 83.4264 16.388 83.4264 14.54C83.4264 12.706 83.8814 11.306 84.7914 10.34C85.7154 9.36 87.0454 8.87 88.7814 8.87C92.1134 8.87 93.8074 10.69 93.8634 14.33C93.8634 14.666 93.7304 14.953 93.4644 15.191C93.2124 15.415 92.9184 15.527 92.5824 15.527H86.9754C86.8354 15.527 86.7794 15.59 86.8074 15.716C86.9194 16.486 87.2134 17.039 87.6894 17.375C88.1794 17.697 88.9074 17.858 89.8734 17.858C90.5034 17.858 91.1824 17.767 91.9104 17.585C92.2044 17.515 92.4634 17.571 92.6874 17.753C92.9254 17.935 93.0444 18.173 93.0444 18.467V18.509C93.0444 18.859 92.9324 19.181 92.7084 19.475C92.4984 19.755 92.2254 19.923 91.8894 19.979C91.0774 20.133 90.2374 20.21 89.3694 20.21ZM97.1909 20C96.8689 20 96.5889 19.881 96.3509 19.643C96.1269 19.405 96.0149 19.125 96.0149 18.803V10.277C96.0149 9.955 96.1269 9.675 96.3509 9.437C96.5889 9.199 96.8689 9.08 97.1909 9.08H98.2199C98.5419 9.08 98.8149 9.199 99.0389 9.437C99.2769 9.675 99.3959 9.955 99.3959 10.277V11.159C99.3959 11.173 99.4029 11.18 99.4169 11.18C99.4449 11.18 99.4589 11.173 99.4589 11.159C100.327 9.997 101.538 9.318 103.092 9.122C103.414 9.08 103.687 9.178 103.911 9.416C104.149 9.654 104.268 9.941 104.268 10.277V10.445C104.268 10.767 104.149 11.047 103.911 11.285C103.687 11.523 103.407 11.656 103.071 11.684C101.937 11.81 101.055 12.202 100.425 12.86C99.8089 13.504 99.5009 14.344 99.5009 15.38V18.803C99.5009 19.125 99.3819 19.405 99.1439 19.643C98.9199 19.881 98.6469 20 98.3249 20H97.1909ZM110.811 7.778L109.278 13.805C109.264 13.847 109.271 13.889 109.299 13.931C109.341 13.959 109.383 13.973 109.425 13.973H112.239C112.281 13.973 112.316 13.959 112.344 13.931C112.386 13.889 112.4 13.847 112.386 13.805L110.853 7.778C110.853 7.764 110.846 7.757 110.832 7.757C110.818 7.757 110.811 7.764 110.811 7.778ZM105.204 20C104.91 20 104.672 19.881 104.49 19.643C104.322 19.405 104.287 19.146 104.385 18.866L108.627 5.804C108.739 5.468 108.935 5.195 109.215 4.985C109.509 4.775 109.831 4.67 110.181 4.67H111.567C111.931 4.67 112.26 4.775 112.554 4.985C112.848 5.195 113.044 5.468 113.142 5.804L117.363 18.866C117.461 19.146 117.419 19.405 117.237 19.643C117.069 19.881 116.838 20 116.544 20H115.137C114.787 20 114.472 19.895 114.192 19.685C113.912 19.461 113.73 19.181 113.646 18.845L113.142 16.85C113.128 16.738 113.058 16.682 112.932 16.682H108.732C108.62 16.682 108.55 16.738 108.522 16.85L108.018 18.845C107.934 19.181 107.752 19.461 107.472 19.685C107.192 19.895 106.877 20 106.527 20H105.204ZM122.404 13.238V15.842C122.404 16.304 122.614 16.731 123.034 17.123C123.468 17.501 123.958 17.69 124.504 17.69C125.148 17.69 125.659 17.431 126.037 16.913C126.415 16.381 126.604 15.59 126.604 14.54C126.604 12.44 125.904 11.39 124.504 11.39C123.958 11.39 123.468 11.586 123.034 11.978C122.614 12.356 122.404 12.776 122.404 13.238ZM120.283 24.62C119.961 24.62 119.681 24.501 119.443 24.263C119.205 24.025 119.086 23.745 119.086 23.423V10.277C119.086 9.955 119.205 9.675 119.443 9.437C119.681 9.199 119.961 9.08 120.283 9.08H121.123C121.459 9.08 121.746 9.199 121.984 9.437C122.222 9.661 122.348 9.941 122.362 10.277V10.445C122.362 10.459 122.369 10.466 122.383 10.466L122.425 10.424C123.321 9.388 124.399 8.87 125.659 8.87C126.961 8.87 127.997 9.36 128.767 10.34C129.551 11.32 129.943 12.72 129.943 14.54C129.943 16.304 129.537 17.69 128.725 18.698C127.927 19.706 126.905 20.21 125.659 20.21C124.497 20.21 123.461 19.783 122.551 18.929C122.537 18.915 122.523 18.908 122.509 18.908C122.495 18.908 122.488 18.915 122.488 18.929V23.423C122.488 23.745 122.369 24.025 122.131 24.263C121.893 24.501 121.613 24.62 121.291 24.62H120.283ZM135.406 13.238V15.842C135.406 16.304 135.616 16.731 136.036 17.123C136.47 17.501 136.96 17.69 137.506 17.69C138.15 17.69 138.661 17.431 139.039 16.913C139.417 16.381 139.606 15.59 139.606 14.54C139.606 12.44 138.906 11.39 137.506 11.39C136.96 11.39 136.47 11.586 136.036 11.978C135.616 12.356 135.406 12.776 135.406 13.238ZM133.285 24.62C132.963 24.62 132.683 24.501 132.445 24.263C132.207 24.025 132.088 23.745 132.088 23.423V10.277C132.088 9.955 132.207 9.675 132.445 9.437C132.683 9.199 132.963 9.08 133.285 9.08H134.125C134.461 9.08 134.748 9.199 134.986 9.437C135.224 9.661 135.35 9.941 135.364 10.277V10.445C135.364 10.459 135.371 10.466 135.385 10.466L135.427 10.424C136.323 9.388 137.401 8.87 138.661 8.87C139.963 8.87 140.999 9.36 141.769 10.34C142.553 11.32 142.945 12.72 142.945 14.54C142.945 16.304 142.539 17.69 141.727 18.698C140.929 19.706 139.907 20.21 138.661 20.21C137.499 20.21 136.463 19.783 135.553 18.929C135.539 18.915 135.525 18.908 135.511 18.908C135.497 18.908 135.49 18.915 135.49 18.929V23.423C135.49 23.745 135.371 24.025 135.133 24.263C134.895 24.501 134.615 24.62 134.293 24.62H133.285Z" fill="black"/>
<path d="M8 2V6" stroke="black" stroke-width="2" stroke-linecap="round" stroke-linejoin="round"/>
<path d="M12 2V6" stroke="black" stroke-width="2" stroke-linecap="round" stroke-linejoin="round"/>
<path d="M16 2V6" stroke="black" stroke-width="2" stroke-linecap="round" stroke-linejoin="round"/>
<path d="M18 4H6C4.89543 4 4 4.89543 4 6V20C4 21.1046 4.89543 22 6 22H18C19.1046 22 20 21.1046 20 20V6C20 4.89543 19.1046 4 18 4Z" stroke="black" stroke-width="2" stroke-linecap="round" stroke-linejoin="round"/>
<path d="M8 10H14" stroke="black" stroke-width="2" stroke-linecap="round" stroke-linejoin="round"/>
<path d="M8 14H16" stroke="black" stroke-width="2" stroke-linecap="round" stroke-linejoin="round"/>
<path d="M8 18H13" stroke="black" stroke-width="2" stroke-linecap="round" stroke-linejoin="round"/>
</svg>
